# xmcd CD database file
#
# Track frame offsets:
#	150
#	26375
#	54870
#	82357
#	111234
#	133745
#	162246
#	188699
#	207912
#	228011
#	253458
#	278491
#
# Disc length: 4059 seconds
#
# Revision: 0
# Processed by: cddbd v1.4PL0 Copyright (c) Steve Scherf et al.
# Submitted via: CDex 1.40Beta8
#
DISCID=a10fd90c
DTITLE=Charlie Jene - Live and Feeling the Heat
DYEAR=1900
DGENRE=Blues
TTITLE0=Let the Good Times Roll
TTITLE1=I Can See the Love
TTITLE2=Summertime
TTITLE3=Chain of Fools
TTITLE4=Sunshine of My Life
TTITLE5=Ain't No Sunshine
TTITLE6=You Are My Sunshine
TTITLE7=What a Difference A Day Makes
TTITLE8=Don't Get Around Much Anymore
TTITLE9=What's Goin' On
TTITLE10=The Lord's Prayer
TTITLE11=Add a Dash of Color To Our Love
EXTD=ID3G: 0
EXTT0=
EXTT1=
EXTT2=
EXTT3=
EXTT4=
EXTT5=
EXTT6=
EXTT7=
EXTT8=
EXTT9=
EXTT10=
EXTT11=
PLAYORDER=
